<svg xmlns="http://www.w3.org/2000/svg" xmlns:xlink="http://www.w3.org/1999/xlink" width="1000" zoomAndPan="magnify" viewBox="0 0 750 299.999988" height="400" preserveAspectRatio="xMidYMid meet" version="1.0"><defs><g/><clipPath id="36d29df095"><rect x="0" width="482" y="0" height="205"/></clipPath></defs><path fill="#ffffff" d="M 51.992188 130.984375 C 53.507812 130.984375 54.742188 132.21875 54.742188 133.730469 C 54.742188 135.246094 53.507812 136.480469 51.992188 136.480469 C 50.480469 136.480469 49.242188 135.246094 49.242188 133.730469 C 49.242188 132.21875 50.480469 130.984375 51.992188 130.984375 Z M 60.242188 95.242188 C 61.753906 95.242188 62.988281 96.476562 62.988281 97.992188 C 62.988281 99.507812 61.753906 100.742188 60.242188 100.742188 C 58.726562 100.742188 57.492188 99.507812 57.492188 97.992188 C 57.492188 96.476562 58.726562 95.242188 60.242188 95.242188 Z M 93.230469 73.25 C 94.746094 73.25 95.980469 74.484375 95.980469 76 C 95.980469 77.515625 94.746094 78.75 93.230469 78.75 C 91.714844 78.75 90.480469 77.515625 90.480469 76 C 90.480469 74.484375 91.714844 73.25 93.230469 73.25 Z M 115.222656 86.996094 L 115.222656 103.996094 C 114.355469 103.695312 113.441406 103.492188 112.472656 103.492188 C 111.207031 103.492188 110.015625 103.800781 108.941406 104.320312 L 101.347656 96.726562 C 100.875 93.707031 98.785156 91.25 95.980469 90.25 L 95.980469 83.742188 C 98.203125 82.949219 99.984375 81.261719 100.863281 79.082031 L 116.101562 81.261719 C 115.535156 83.078125 115.222656 85 115.222656 86.996094 Z M 120.722656 86.996094 C 120.722656 79.414062 126.886719 73.25 134.46875 73.25 C 139.878906 73.25 144.808594 76.449219 147.019531 81.410156 C 147.324219 82.089844 147.878906 82.605469 148.566406 82.863281 C 149.253906 83.121094 150.015625 83.097656 150.683594 82.785156 C 152.53125 81.925781 154.460938 81.496094 156.460938 81.496094 C 164.042969 81.496094 170.207031 87.660156 170.207031 95.242188 C 170.207031 96.726562 169.9375 98.183594 169.476562 99.582031 C 166.695312 98.574219 163.710938 97.992188 160.585938 97.992188 C 146.183594 97.992188 134.46875 109.710938 134.46875 124.109375 L 139.964844 124.109375 C 139.964844 112.738281 149.210938 103.492188 160.585938 103.492188 C 163.871094 103.492188 166.972656 104.285156 169.734375 105.660156 C 171.386719 106.488281 172.882812 107.507812 174.222656 108.691406 C 174.394531 108.839844 174.566406 109 174.738281 109.160156 C 175.222656 109.613281 175.683594 110.09375 176.121094 110.601562 C 176.328125 110.835938 176.53125 111.074219 176.726562 111.320312 C 177.125 111.824219 177.496094 112.328125 177.839844 112.867188 C 178.035156 113.167969 178.226562 113.480469 178.398438 113.789062 C 178.65625 114.21875 178.882812 114.65625 179.097656 115.101562 C 179.25 115.398438 179.398438 115.679688 179.527344 115.980469 C 179.828125 116.691406 180.097656 117.417969 180.324219 118.160156 C 180.398438 118.417969 180.453125 118.675781 180.515625 118.921875 C 180.667969 119.523438 180.804688 120.125 180.902344 120.738281 C 180.945312 120.996094 180.988281 121.265625 181.023438 121.523438 C 181.128906 122.371094 181.203125 123.230469 181.203125 124.109375 C 181.203125 126.234375 180.835938 128.328125 180.195312 130.339844 C 176.800781 127.332031 172.34375 125.484375 167.457031 125.484375 L 167.457031 130.984375 C 172.171875 130.984375 176.335938 133.378906 178.820312 137.003906 C 178.882812 137.105469 178.925781 137.210938 178.988281 137.296875 C 179.367188 137.886719 179.699219 138.488281 179.980469 139.132812 C 180.085938 139.359375 180.171875 139.59375 180.257812 139.832031 C 180.472656 140.378906 180.644531 140.9375 180.785156 141.515625 C 180.835938 141.753906 180.902344 142 180.957031 142.238281 C 181.105469 143.054688 181.203125 143.878906 181.203125 144.726562 C 181.203125 150.3125 177.863281 155.308594 172.6875 157.433594 C 171.980469 157.730469 171.429688 158.304688 171.164062 159.019531 C 170.894531 159.753906 170.949219 160.546875 171.292969 161.234375 C 172.398438 163.382812 172.957031 165.703125 172.957031 168.097656 C 172.957031 171.027344 172.117188 173.808594 170.59375 176.203125 C 168.574219 178.78125 165.480469 180.46875 161.960938 180.46875 C 156.816406 180.46875 152.519531 176.902344 151.328125 172.132812 C 160.371094 171.25 167.457031 163.617188 167.457031 154.351562 L 161.960938 154.351562 C 161.960938 161.167969 156.40625 166.722656 149.585938 166.722656 C 142.769531 166.722656 137.214844 161.167969 137.214844 154.351562 L 131.71875 154.351562 C 131.71875 162.84375 137.679688 169.964844 145.644531 171.769531 C 146.765625 179.78125 153.648438 185.964844 161.960938 185.964844 C 163.632812 185.964844 165.246094 185.707031 166.769531 185.246094 C 167.222656 186.816406 167.457031 188.445312 167.457031 190.089844 C 167.457031 190.691406 167.425781 191.292969 167.371094 191.882812 C 167.351562 192.078125 167.304688 192.269531 167.277344 192.472656 C 167.230469 192.859375 167.175781 193.246094 167.101562 193.621094 C 167.058594 193.847656 166.996094 194.074219 166.933594 194.296875 C 166.855469 194.628906 166.78125 194.972656 166.671875 195.308594 C 166.609375 195.542969 166.511719 195.769531 166.425781 196.003906 C 166.320312 196.308594 166.222656 196.617188 166.09375 196.917969 C 165.996094 197.15625 165.878906 197.378906 165.773438 197.605469 C 165.644531 197.898438 165.511719 198.183594 165.363281 198.453125 C 165.246094 198.691406 165.105469 198.917969 164.964844 199.140625 C 164.816406 199.402344 164.664062 199.65625 164.503906 199.902344 C 164.34375 200.140625 164.183594 200.367188 164.019531 200.589844 C 163.851562 200.816406 163.6875 201.042969 163.515625 201.257812 C 163.324219 201.492188 163.128906 201.710938 162.925781 201.933594 C 162.753906 202.128906 162.589844 202.320312 162.410156 202.503906 C 162.183594 202.742188 161.949219 202.964844 161.699219 203.191406 C 161.542969 203.339844 161.378906 203.492188 161.207031 203.632812 C 160.929688 203.878906 160.648438 204.09375 160.359375 204.320312 C 160.207031 204.425781 160.066406 204.53125 159.917969 204.640625 C 159.585938 204.875 159.242188 205.101562 158.886719 205.316406 C 158.78125 205.390625 158.664062 205.457031 158.542969 205.519531 C 158.15625 205.757812 157.75 205.972656 157.328125 206.167969 C 157.253906 206.207031 157.179688 206.242188 157.105469 206.285156 C 156.640625 206.488281 156.171875 206.679688 155.699219 206.863281 C 155.667969 206.871094 155.621094 206.882812 155.59375 206.894531 C 154.011719 207.464844 152.316406 207.808594 150.554688 207.902344 L 150.542969 207.902344 C 150.21875 207.925781 149.910156 207.957031 149.585938 207.957031 C 139.730469 207.957031 131.71875 199.949219 131.71875 190.089844 L 126.21875 190.089844 C 126.21875 202.515625 135.960938 212.664062 148.203125 213.394531 C 148.203125 213.402344 148.214844 213.433594 148.214844 213.457031 C 148.214844 221.039062 142.050781 227.203125 134.46875 227.203125 C 126.886719 227.203125 120.722656 221.039062 120.722656 213.457031 Z M 111.617188 213.691406 L 102.53125 193.246094 C 104.355469 192.28125 105.773438 190.679688 106.46875 188.714844 L 115.222656 188.714844 L 115.222656 213.457031 C 115.222656 214.230469 115.277344 214.984375 115.363281 215.722656 C 114.332031 214.746094 113.054688 214.035156 111.617188 213.691406 Z M 109.726562 224.453125 C 108.210938 224.453125 106.976562 223.21875 106.976562 221.703125 C 106.976562 220.191406 108.210938 218.957031 109.726562 218.957031 C 111.238281 218.957031 112.472656 220.191406 112.472656 221.703125 C 112.472656 223.21875 111.238281 224.453125 109.726562 224.453125 Z M 79.484375 210.707031 C 79.484375 209.191406 80.71875 207.957031 82.234375 207.957031 C 83.75 207.957031 84.984375 209.191406 84.984375 210.707031 C 84.984375 212.222656 83.75 213.457031 82.234375 213.457031 C 80.71875 213.457031 79.484375 212.222656 79.484375 210.707031 Z M 60.242188 194.210938 C 60.242188 192.699219 61.476562 191.464844 62.988281 191.464844 C 64.503906 191.464844 65.738281 192.699219 65.738281 194.210938 C 65.738281 195.726562 64.503906 196.960938 62.988281 196.960938 C 61.476562 196.960938 60.242188 195.726562 60.242188 194.210938 Z M 60.242188 158.472656 C 61.753906 158.472656 62.988281 159.707031 62.988281 161.222656 C 62.988281 162.738281 61.753906 163.972656 60.242188 163.972656 C 58.726562 163.972656 57.492188 162.738281 57.492188 161.222656 C 57.492188 159.707031 58.726562 158.472656 60.242188 158.472656 Z M 59.929688 135.855469 L 74.589844 134.019531 C 75.488281 136.300781 77.378906 138.046875 79.730469 138.800781 L 81.976562 159.066406 C 80.085938 159.804688 78.5625 161.222656 77.648438 163.027344 L 68.230469 159.257812 C 67.480469 156.242188 65.085938 153.878906 62.042969 153.191406 L 55.921875 140.9375 C 57.878906 139.863281 59.339844 138.046875 59.929688 135.855469 Z M 93.230469 95.242188 C 94.746094 95.242188 95.980469 96.476562 95.980469 97.992188 C 95.980469 99.507812 94.746094 100.742188 93.230469 100.742188 C 91.714844 100.742188 90.480469 99.507812 90.480469 97.992188 C 90.480469 96.476562 91.714844 95.242188 93.230469 95.242188 Z M 112.472656 147.476562 C 110.960938 147.476562 109.726562 146.242188 109.726562 144.726562 C 109.726562 143.214844 110.960938 141.980469 112.472656 141.980469 C 113.988281 141.980469 115.222656 143.214844 115.222656 144.726562 C 115.222656 146.242188 113.988281 147.476562 112.472656 147.476562 Z M 98.730469 188.714844 C 97.214844 188.714844 95.980469 187.480469 95.980469 185.964844 C 95.980469 184.449219 97.214844 183.214844 98.730469 183.214844 C 100.242188 183.214844 101.476562 184.449219 101.476562 185.964844 C 101.476562 187.480469 100.242188 188.714844 98.730469 188.714844 Z M 84.984375 163.972656 C 86.496094 163.972656 87.730469 165.207031 87.730469 166.722656 C 87.730469 168.234375 86.496094 169.46875 84.984375 169.46875 C 83.46875 169.46875 82.234375 168.234375 82.234375 166.722656 C 82.234375 165.207031 83.46875 163.972656 84.984375 163.972656 Z M 89.4375 134.914062 L 104.582031 142.484375 C 104.367188 143.203125 104.226562 143.945312 104.226562 144.726562 C 104.226562 147.175781 105.320312 149.359375 107.03125 150.871094 L 91.890625 162.230469 C 90.859375 160.664062 89.308594 159.492188 87.484375 158.902344 L 85.242188 138.640625 C 87.042969 137.929688 88.515625 136.597656 89.4375 134.914062 Z M 82.234375 128.234375 C 83.75 128.234375 84.984375 129.46875 84.984375 130.984375 C 84.984375 132.496094 83.75 133.730469 82.234375 133.730469 C 80.71875 133.730469 79.484375 132.496094 79.484375 130.984375 C 79.484375 129.46875 80.71875 128.234375 82.234375 128.234375 Z M 65.46875 186.382812 L 63.277344 168.867188 C 65.148438 168.128906 66.671875 166.710938 67.574219 164.917969 L 76.992188 168.6875 C 77.882812 172.28125 81.117188 174.96875 84.984375 174.96875 C 86.839844 174.96875 88.539062 174.335938 89.914062 173.292969 L 94.238281 179.058594 C 92.605469 180.132812 91.40625 181.765625 90.847656 183.679688 L 68.949219 188.542969 C 68.003906 187.554688 66.8125 186.816406 65.46875 186.382812 Z M 75.671875 205.757812 L 69.335938 199.421875 C 70.507812 197.992188 71.238281 196.199219 71.238281 194.210938 C 71.238281 194.03125 71.191406 193.859375 71.183594 193.675781 L 91.167969 189.238281 C 91.84375 190.796875 92.992188 192.085938 94.421875 192.96875 L 87.042969 204.039062 C 85.691406 203.050781 84.039062 202.460938 82.234375 202.460938 C 79.546875 202.460938 77.1875 203.773438 75.671875 205.757812 Z M 102.421875 217.945312 L 90.210938 212.707031 C 90.375 212.058594 90.480469 211.394531 90.480469 210.707031 C 90.480469 210.136719 90.425781 209.582031 90.3125 209.042969 L 98.246094 197.144531 L 105.921875 214.425781 C 104.429688 215.21875 103.207031 216.429688 102.421875 217.945312 Z M 106.46875 183.214844 C 105.496094 180.476562 103.132812 178.40625 100.210938 177.871094 L 93.066406 168.34375 C 93.078125 168.300781 93.066406 168.246094 93.078125 168.203125 L 113.539062 152.867188 C 114.117188 152.792969 114.6875 152.664062 115.222656 152.46875 L 115.222656 183.214844 Z M 112.472656 108.988281 C 113.988281 108.988281 115.222656 110.222656 115.222656 111.738281 C 115.222656 113.253906 113.988281 114.488281 112.472656 114.488281 C 110.960938 114.488281 109.726562 113.253906 109.726562 111.738281 C 109.726562 110.222656 110.960938 108.988281 112.472656 108.988281 Z M 99.792969 102.945312 L 105.054688 108.207031 C 104.539062 109.277344 104.226562 110.472656 104.226562 111.738281 C 104.226562 116.292969 107.921875 119.984375 112.472656 119.984375 C 113.441406 119.984375 114.355469 119.78125 115.222656 119.480469 L 115.222656 136.988281 C 114.355469 136.683594 113.441406 136.480469 112.472656 136.480469 C 110.734375 136.480469 109.132812 137.027344 107.804688 137.941406 L 90.265625 129.179688 C 89.738281 126.835938 88.214844 124.894531 86.164062 123.777344 L 95.035156 106.027344 C 96.964844 105.597656 98.632812 104.46875 99.792969 102.945312 Z M 90.480469 83.742188 L 90.480469 90.25 C 87.292969 91.390625 84.984375 94.417969 84.984375 97.992188 C 84.984375 101.109375 86.746094 103.789062 89.300781 105.199219 L 81.726562 120.351562 L 67.425781 101.964844 C 68.082031 100.785156 68.488281 99.441406 68.488281 97.992188 C 68.488281 97.519531 68.425781 97.058594 68.347656 96.605469 L 86.496094 80.734375 C 87.472656 82.109375 88.859375 83.164062 90.480469 83.742188 Z M 55.535156 126.3125 L 62.324219 105.941406 C 62.65625 105.855469 62.988281 105.769531 63.3125 105.640625 L 77.679688 124.109375 C 76.132812 125.140625 74.984375 126.699219 74.402344 128.503906 L 59.5 130.371094 C 58.703125 128.589844 57.289062 127.160156 55.535156 126.3125 " fill-opacity="1" fill-rule="nonzero"/><g transform="matrix(1, 0, 0, 1, 229, 46)"><g clip-path="url(#36d29df095)"><g fill="#ffffff" fill-opacity="1"><g transform="translate(0.751818, 78.619585)"><g><path d="M 34.34375 -20.234375 C 34.707031 -19.609375 35.023438 -18.953125 35.296875 -18.265625 C 35.566406 -17.578125 35.832031 -16.878906 36.09375 -16.171875 C 36.351562 -16.898438 36.625 -17.597656 36.90625 -18.265625 C 37.195312 -18.929688 37.523438 -19.601562 37.890625 -20.28125 L 56.84375 -54.703125 C 57.1875 -55.296875 57.539062 -55.65625 57.90625 -55.78125 C 58.269531 -55.914062 58.789062 -55.984375 59.46875 -55.984375 L 65.046875 -55.984375 L 65.046875 0 L 58.40625 0 L 58.40625 -41.140625 C 58.40625 -41.691406 58.414062 -42.28125 58.4375 -42.90625 C 58.46875 -43.53125 58.507812 -44.164062 58.5625 -44.8125 L 39.390625 -9.8125 C 38.734375 -8.632812 37.816406 -8.046875 36.640625 -8.046875 L 35.546875 -8.046875 C 34.378906 -8.046875 33.46875 -8.632812 32.8125 -9.8125 L 13.203125 -44.9375 C 13.285156 -44.257812 13.34375 -43.59375 13.375 -42.9375 C 13.414062 -42.289062 13.4375 -41.691406 13.4375 -41.140625 L 13.4375 0 L 6.796875 0 L 6.796875 -55.984375 L 12.390625 -55.984375 C 13.066406 -55.984375 13.585938 -55.914062 13.953125 -55.78125 C 14.316406 -55.65625 14.664062 -55.296875 15 -54.703125 Z M 34.34375 -20.234375 "/></g></g></g><g fill="#ffffff" fill-opacity="1"><g transform="translate(90.585266, 78.619585)"><g><path d="M 15.78125 0 L 8.203125 0 L 8.203125 -55.984375 L 15.78125 -55.984375 Z M 15.78125 0 "/></g></g></g><g fill="#ffffff" fill-opacity="1"><g transform="translate(132.536938, 78.619585)"><g><path d="M 10.703125 -55.984375 C 11.378906 -55.984375 11.878906 -55.898438 12.203125 -55.734375 C 12.535156 -55.566406 12.910156 -55.222656 13.328125 -54.703125 L 45.75 -12.5 C 45.675781 -13.175781 45.625 -13.832031 45.59375 -14.46875 C 45.570312 -15.113281 45.5625 -15.734375 45.5625 -16.328125 L 45.5625 -55.984375 L 52.203125 -55.984375 L 52.203125 0 L 48.375 0 C 47.769531 0 47.265625 -0.101562 46.859375 -0.3125 C 46.460938 -0.519531 46.066406 -0.875 45.671875 -1.375 L 13.28125 -43.53125 C 13.332031 -42.875 13.367188 -42.234375 13.390625 -41.609375 C 13.421875 -40.984375 13.4375 -40.410156 13.4375 -39.890625 L 13.4375 0 L 6.796875 0 L 6.796875 -55.984375 Z M 10.703125 -55.984375 "/></g></g></g><g fill="#ffffff" fill-opacity="1"><g transform="translate(209.560273, 78.619585)"><g><path d="M 55.328125 -27.96875 C 55.328125 -23.78125 54.660156 -19.96875 53.328125 -16.53125 C 52.003906 -13.09375 50.128906 -10.148438 47.703125 -7.703125 C 45.285156 -5.253906 42.378906 -3.359375 38.984375 -2.015625 C 35.597656 -0.671875 31.847656 0 27.734375 0 L 6.796875 0 L 6.796875 -55.984375 L 27.734375 -55.984375 C 31.847656 -55.984375 35.597656 -55.3125 38.984375 -53.96875 C 42.378906 -52.632812 45.285156 -50.734375 47.703125 -48.265625 C 50.128906 -45.804688 52.003906 -42.859375 53.328125 -39.421875 C 54.660156 -35.984375 55.328125 -32.164062 55.328125 -27.96875 Z M 47.546875 -27.96875 C 47.546875 -31.40625 47.078125 -34.476562 46.140625 -37.1875 C 45.203125 -39.90625 43.875 -42.203125 42.15625 -44.078125 C 40.4375 -45.953125 38.351562 -47.382812 35.90625 -48.375 C 33.457031 -49.363281 30.734375 -49.859375 27.734375 -49.859375 L 14.421875 -49.859375 L 14.421875 -6.140625 L 27.734375 -6.140625 C 30.734375 -6.140625 33.457031 -6.632812 35.90625 -7.625 C 38.351562 -8.613281 40.4375 -10.035156 42.15625 -11.890625 C 43.875 -13.753906 45.203125 -16.039062 46.140625 -18.75 C 47.078125 -21.457031 47.546875 -24.53125 47.546875 -27.96875 Z M 47.546875 -27.96875 "/></g></g></g><g fill="#ffffff" fill-opacity="1"><g transform="translate(286.349255, 78.619585)"><g><path d="M 41.296875 -55.984375 L 41.296875 -49.8125 L 14.421875 -49.8125 L 14.421875 -30.234375 L 37.390625 -30.234375 L 37.390625 -24.0625 L 14.421875 -24.0625 L 14.421875 0 L 6.796875 0 L 6.796875 -55.984375 Z M 41.296875 -55.984375 "/></g></g></g><g fill="#ffffff" fill-opacity="1"><g transform="translate(348.531577, 78.619585)"><g><path d="M 28.5625 -6.015625 C 30.875 -6.015625 32.941406 -6.40625 34.765625 -7.1875 C 36.585938 -7.96875 38.128906 -9.0625 39.390625 -10.46875 C 40.660156 -11.875 41.628906 -13.550781 42.296875 -15.5 C 42.960938 -17.457031 43.296875 -19.609375 43.296875 -21.953125 L 43.296875 -55.984375 L 50.828125 -55.984375 L 50.828125 -21.953125 C 50.828125 -18.722656 50.3125 -15.726562 49.28125 -12.96875 C 48.257812 -10.207031 46.789062 -7.816406 44.875 -5.796875 C 42.957031 -3.785156 40.617188 -2.203125 37.859375 -1.046875 C 35.097656 0.0976562 32 0.671875 28.5625 0.671875 C 25.125 0.671875 22.023438 0.0976562 19.265625 -1.046875 C 16.503906 -2.203125 14.160156 -3.785156 12.234375 -5.796875 C 10.304688 -7.816406 8.828125 -10.207031 7.796875 -12.96875 C 6.765625 -15.726562 6.25 -18.722656 6.25 -21.953125 L 6.25 -55.984375 L 13.796875 -55.984375 L 13.796875 -22 C 13.796875 -19.65625 14.125 -17.503906 14.78125 -15.546875 C 15.445312 -13.597656 16.410156 -11.921875 17.671875 -10.515625 C 18.941406 -9.109375 20.492188 -8.003906 22.328125 -7.203125 C 24.160156 -6.410156 26.238281 -6.015625 28.5625 -6.015625 Z M 28.5625 -6.015625 "/></g></g></g><g fill="#ffffff" fill-opacity="1"><g transform="translate(423.524012, 78.619585)"><g><path d="M 14.375 -6.375 L 38.59375 -6.375 L 38.59375 0 L 6.796875 0 L 6.796875 -55.984375 L 14.375 -55.984375 Z M 14.375 -6.375 "/></g></g></g><g fill="#ffffff" fill-opacity="1"><g transform="translate(0.751818, 187.842844)"><g><path d="M 55.328125 -27.96875 C 55.328125 -23.78125 54.660156 -19.96875 53.328125 -16.53125 C 52.003906 -13.09375 50.128906 -10.148438 47.703125 -7.703125 C 45.285156 -5.253906 42.378906 -3.359375 38.984375 -2.015625 C 35.597656 -0.671875 31.847656 0 27.734375 0 L 6.796875 0 L 6.796875 -55.984375 L 27.734375 -55.984375 C 31.847656 -55.984375 35.597656 -55.3125 38.984375 -53.96875 C 42.378906 -52.632812 45.285156 -50.734375 47.703125 -48.265625 C 50.128906 -45.804688 52.003906 -42.859375 53.328125 -39.421875 C 54.660156 -35.984375 55.328125 -32.164062 55.328125 -27.96875 Z M 47.546875 -27.96875 C 47.546875 -31.40625 47.078125 -34.476562 46.140625 -37.1875 C 45.203125 -39.90625 43.875 -42.203125 42.15625 -44.078125 C 40.4375 -45.953125 38.351562 -47.382812 35.90625 -48.375 C 33.457031 -49.363281 30.734375 -49.859375 27.734375 -49.859375 L 14.421875 -49.859375 L 14.421875 -6.140625 L 27.734375 -6.140625 C 30.734375 -6.140625 33.457031 -6.632812 35.90625 -7.625 C 38.351562 -8.613281 40.4375 -10.035156 42.15625 -11.890625 C 43.875 -13.753906 45.203125 -16.039062 46.140625 -18.75 C 47.078125 -21.457031 47.546875 -24.53125 47.546875 -27.96875 Z M 47.546875 -27.96875 "/></g></g></g><g fill="#ffffff" fill-opacity="1"><g transform="translate(77.540799, 187.842844)"><g><path d="M 41.296875 -55.984375 L 41.296875 -49.8125 L 14.421875 -49.8125 L 14.421875 -31.21875 L 36.171875 -31.21875 L 36.171875 -25.28125 L 14.421875 -25.28125 L 14.421875 -6.171875 L 41.296875 -6.171875 L 41.296875 0 L 6.796875 0 L 6.796875 -55.984375 Z M 41.296875 -55.984375 "/></g></g></g><g fill="#ffffff" fill-opacity="1"><g transform="translate(140.894784, 187.842844)"><g><path d="M 35.46875 -47.234375 C 35.238281 -46.847656 34.992188 -46.554688 34.734375 -46.359375 C 34.472656 -46.160156 34.132812 -46.0625 33.71875 -46.0625 C 33.269531 -46.0625 32.753906 -46.28125 32.171875 -46.71875 C 31.585938 -47.164062 30.84375 -47.65625 29.9375 -48.1875 C 29.039062 -48.726562 27.960938 -49.21875 26.703125 -49.65625 C 25.441406 -50.101562 23.910156 -50.328125 22.109375 -50.328125 C 20.421875 -50.328125 18.925781 -50.097656 17.625 -49.640625 C 16.320312 -49.179688 15.234375 -48.5625 14.359375 -47.78125 C 13.484375 -47 12.820312 -46.082031 12.375 -45.03125 C 11.9375 -43.976562 11.71875 -42.835938 11.71875 -41.609375 C 11.71875 -40.046875 12.101562 -38.75 12.875 -37.71875 C 13.644531 -36.6875 14.660156 -35.804688 15.921875 -35.078125 C 17.179688 -34.347656 18.613281 -33.71875 20.21875 -33.1875 C 21.820312 -32.65625 23.460938 -32.101562 25.140625 -31.53125 C 26.816406 -30.957031 28.457031 -30.3125 30.0625 -29.59375 C 31.664062 -28.875 33.097656 -27.96875 34.359375 -26.875 C 35.617188 -25.78125 36.632812 -24.4375 37.40625 -22.84375 C 38.175781 -21.257812 38.5625 -19.3125 38.5625 -17 C 38.5625 -14.550781 38.144531 -12.25 37.3125 -10.09375 C 36.476562 -7.945312 35.257812 -6.078125 33.65625 -4.484375 C 32.050781 -2.898438 30.082031 -1.648438 27.75 -0.734375 C 25.425781 0.171875 22.78125 0.625 19.8125 0.625 C 16.1875 0.625 12.882812 -0.03125 9.90625 -1.34375 C 6.925781 -2.664062 4.378906 -4.445312 2.265625 -6.6875 L 4.453125 -10.28125 C 4.660156 -10.5625 4.914062 -10.800781 5.21875 -11 C 5.519531 -11.195312 5.851562 -11.296875 6.21875 -11.296875 C 6.757812 -11.296875 7.378906 -11 8.078125 -10.40625 C 8.785156 -9.820312 9.664062 -9.175781 10.71875 -8.46875 C 11.78125 -7.769531 13.054688 -7.128906 14.546875 -6.546875 C 16.046875 -5.960938 17.878906 -5.671875 20.046875 -5.671875 C 21.835938 -5.671875 23.4375 -5.914062 24.84375 -6.40625 C 26.25 -6.90625 27.441406 -7.601562 28.421875 -8.5 C 29.398438 -9.394531 30.148438 -10.46875 30.671875 -11.71875 C 31.191406 -12.96875 31.453125 -14.363281 31.453125 -15.90625 C 31.453125 -17.59375 31.066406 -18.976562 30.296875 -20.0625 C 29.523438 -21.144531 28.515625 -22.050781 27.265625 -22.78125 C 26.015625 -23.507812 24.585938 -24.125 22.984375 -24.625 C 21.390625 -25.132812 19.75 -25.65625 18.0625 -26.1875 C 16.382812 -26.726562 14.742188 -27.347656 13.140625 -28.046875 C 11.546875 -28.753906 10.125 -29.664062 8.875 -30.78125 C 7.625 -31.90625 6.613281 -33.304688 5.84375 -34.984375 C 5.070312 -36.660156 4.6875 -38.738281 4.6875 -41.21875 C 4.6875 -43.195312 5.070312 -45.109375 5.84375 -46.953125 C 6.613281 -48.804688 7.726562 -50.445312 9.1875 -51.875 C 10.644531 -53.3125 12.445312 -54.457031 14.59375 -55.3125 C 16.738281 -56.175781 19.207031 -56.609375 22 -56.609375 C 25.125 -56.609375 27.972656 -56.113281 30.546875 -55.125 C 33.128906 -54.132812 35.382812 -52.703125 37.3125 -50.828125 Z M 35.46875 -47.234375 "/></g></g></g><g fill="#ffffff" fill-opacity="1"><g transform="translate(200.265111, 187.842844)"><g><path d="M 15.78125 0 L 8.203125 0 L 8.203125 -55.984375 L 15.78125 -55.984375 Z M 15.78125 0 "/></g></g></g><g fill="#ffffff" fill-opacity="1"><g transform="translate(242.216784, 187.842844)"><g><path d="M 31.765625 -5.515625 C 33.273438 -5.515625 34.660156 -5.582031 35.921875 -5.71875 C 37.179688 -5.863281 38.375 -6.078125 39.5 -6.359375 C 40.625 -6.648438 41.679688 -7 42.671875 -7.40625 C 43.660156 -7.8125 44.648438 -8.273438 45.640625 -8.796875 L 45.640625 -21.140625 L 36.953125 -21.140625 C 36.460938 -21.140625 36.066406 -21.28125 35.765625 -21.5625 C 35.460938 -21.851562 35.3125 -22.207031 35.3125 -22.625 L 35.3125 -26.921875 L 52.515625 -26.921875 L 52.515625 -5.4375 C 51.109375 -4.414062 49.640625 -3.523438 48.109375 -2.765625 C 46.585938 -2.015625 44.960938 -1.382812 43.234375 -0.875 C 41.503906 -0.375 39.644531 0 37.65625 0.25 C 35.675781 0.5 33.53125 0.625 31.21875 0.625 C 27.15625 0.625 23.429688 -0.0703125 20.046875 -1.46875 C 16.660156 -2.863281 13.742188 -4.816406 11.296875 -7.328125 C 8.847656 -9.835938 6.9375 -12.847656 5.5625 -16.359375 C 4.195312 -19.878906 3.515625 -23.75 3.515625 -27.96875 C 3.515625 -32.238281 4.1875 -36.132812 5.53125 -39.65625 C 6.875 -43.175781 8.785156 -46.191406 11.265625 -48.703125 C 13.753906 -51.210938 16.765625 -53.15625 20.296875 -54.53125 C 23.828125 -55.914062 27.78125 -56.609375 32.15625 -56.609375 C 34.363281 -56.609375 36.421875 -56.445312 38.328125 -56.125 C 40.234375 -55.800781 42 -55.332031 43.625 -54.71875 C 45.25 -54.101562 46.75 -53.359375 48.125 -52.484375 C 49.507812 -51.617188 50.800781 -50.640625 52 -49.546875 L 49.859375 -46.109375 C 49.410156 -45.398438 48.835938 -45.046875 48.140625 -45.046875 C 47.722656 -45.046875 47.265625 -45.191406 46.765625 -45.484375 C 46.117188 -45.847656 45.390625 -46.289062 44.578125 -46.8125 C 43.773438 -47.332031 42.789062 -47.832031 41.625 -48.3125 C 40.46875 -48.789062 39.097656 -49.195312 37.515625 -49.53125 C 35.941406 -49.875 34.078125 -50.046875 31.921875 -50.046875 C 28.765625 -50.046875 25.910156 -49.53125 23.359375 -48.5 C 20.804688 -47.476562 18.628906 -46.007812 16.828125 -44.09375 C 15.035156 -42.175781 13.65625 -39.851562 12.6875 -37.125 C 11.726562 -34.40625 11.25 -31.351562 11.25 -27.96875 C 11.25 -24.425781 11.75 -21.269531 12.75 -18.5 C 13.757812 -15.726562 15.175781 -13.378906 17 -11.453125 C 18.820312 -9.523438 20.984375 -8.050781 23.484375 -7.03125 C 25.984375 -6.019531 28.742188 -5.515625 31.765625 -5.515625 Z M 31.765625 -5.515625 "/></g></g></g><g fill="#ffffff" fill-opacity="1"><g transform="translate(317.521678, 187.842844)"><g><path d="M 10.703125 -55.984375 C 11.378906 -55.984375 11.878906 -55.898438 12.203125 -55.734375 C 12.535156 -55.566406 12.910156 -55.222656 13.328125 -54.703125 L 45.75 -12.5 C 45.675781 -13.175781 45.625 -13.832031 45.59375 -14.46875 C 45.570312 -15.113281 45.5625 -15.734375 45.5625 -16.328125 L 45.5625 -55.984375 L 52.203125 -55.984375 L 52.203125 0 L 48.375 0 C 47.769531 0 47.265625 -0.101562 46.859375 -0.3125 C 46.460938 -0.519531 46.066406 -0.875 45.671875 -1.375 L 13.28125 -43.53125 C 13.332031 -42.875 13.367188 -42.234375 13.390625 -41.609375 C 13.421875 -40.984375 13.4375 -40.410156 13.4375 -39.890625 L 13.4375 0 L 6.796875 0 L 6.796875 -55.984375 Z M 10.703125 -55.984375 "/></g></g></g></g></g></svg>